<?xml version="1.0" encoding="UTF-8"?><svg id="Layer_1" xmlns="http://www.w3.org/2000/svg" viewBox="0 0 2683.88 405.83"><defs><style>.cls-1{fill:#191c24;}.cls-2{fill:#fff;}.cls-3{fill:#ebeff1;}.cls-4{fill:#252a31;}.cls-5{fill:#080909;}.cls-6{fill:#161b21;}.cls-7{fill:#f7ad53;}.cls-8{fill:#333a43;}.cls-9{fill:#15181e;}.cls-10{fill:#3d454e;}.cls-11{fill:#231f20;}</style></defs><path class="cls-2" d="m408.35,0v198.35h-3.1c-.53-1.76-1.09-3.55-1.66-5.31-.13-.88-.29-1.79-.45-2.67-.05-.45-.11-.88-.16-1.31,0-.67-.03-1.33-.03-2-.37-1.33-.75-2.67-1.15-4-.27-6.17-.56-12.36-.83-18.53-.61-3.34-1.23-6.67-1.82-9.99-.69-3.1-1.39-6.19-2.06-9.29-3.02-7.77-5.45-15.83-9.18-23.23-3.23-6.35-7.93-11.96-11.96-17.92-3.12-4.51-7.26-8.54-11.37-12.2-2.38-2.11-4.94-4.03-7.53-5.95-1.58-1.17-6.49-3.58-7.24-5.39-1.95-4.67,3.9-6.43,7.24-9.18,4.57-3.76,8.7-8.33,12.58-12.79,9-10.28,36.07-46.27,10.92-54.63-.67-.24-1.36-.51-2.03-.75.21-1.07.43-2.14.64-3.2h29.18Z"/><path class="cls-3" d="m408.35,198.35v31.85c-.83.24-1.66.51-2.48.77-.21-10.89-.4-21.76-.61-32.63h3.1Z"/><path class="cls-3" d="m379.17,0c-.21,1.07-.43,2.14-.64,3.2-2.46-.03-4.89-.03-7.32-.05V0h7.96Z"/><path d="m405.25,198.35c-.53-1.76-1.09-3.55-1.66-5.31-.77-.43-1.55-.83-2.32-1.25.64-.48,1.25-.96,1.87-1.42-.05-.45-.11-.88-.16-1.31,0-.67-.03-1.33-.03-2-.37-1.33-.75-2.67-1.15-4-.27-6.17-.56-12.36-.83-18.53-.61-3.34-1.23-6.67-1.82-9.99-.69-3.1-1.39-6.19-2.06-9.29-3.02-7.77-5.45-15.83-9.18-23.23-3.23-6.35-7.93-11.96-11.96-17.92-3.12-4.51-7.26-8.54-11.37-12.2-2.38-2.11-4.94-4.03-7.53-5.95-1.58-1.17-6.49-3.58-7.24-5.39-1.95-4.67,3.9-6.43,7.24-9.18,4.57-3.76,8.7-8.33,12.58-12.79,9-10.28,36.07-46.27,10.92-54.63-.67-.24-1.36-.51-2.03-.75-2.46-.03-4.89-.03-7.32-.05-.88.32-1.76.61-2.64.93-.43.03-.88-.05-1.25.11-6.22,2.62-12.44,5.26-18.66,7.88-.21.16-.45.29-.69.43-1.31.48-2.62.96-3.92,1.44-5.07,1.82-10.17,3.6-15.27,5.42-23.33,6.01-46.51,10.12-70.32,13.72-13.54.03-27.07.08-40.61.05-1.92,0-3.87-.35-5.79-.53-2.35-.24-4.73-.72-7.1-.72-10.68-.05-21.33.05-32.01.08-6.11.64-12.28.99-18.34,1.98-6.09.99-12.09,2.62-18.13,3.95-6.94-.4-17.33,4.81-23.71,7.45-8.41,3.5-15.83,8.76-23.5,13.64-1.07.72-2.14,1.44-3.2,2.16-.24.19-.45.35-.69.53-.21.21-.43.4-.67.61-.88.67-1.76,1.36-2.67,2.03-8.33,6.11-16.13,12.04-25.15,17.14-1.76,1.12-3.55,2.24-5.34,3.36-1.31,1.12-2.62,2.24-3.95,3.36-22.85,19.22-38.53,45.79-42.32,75.66-.21,7.29-.4,14.58-.61,21.84-.91,4.67-1.79,9.32-2.7,13.99-.24,1.98-.45,3.98-.67,5.95-.21,2.91-.4,5.79-.61,8.68-2.24,16.23,1.71,33.88,5.29,49.71,1.47,5.1,2.94,10.2,4.43,15.27,1.36,3.6,2.32,7.42,4.17,10.76,5.02,9.13,10.41,18.08,15.67,27.07,1.12,1.58,2.27,3.15,3.39,4.73.67.88,1.31,1.79,1.98,2.7.13.4.19.88.43,1.17,7.16,7.56,14.31,15.09,21.49,22.61,5.74,4.62,11.27,9.56,17.27,13.78,5.69,3.98,11.91,7.21,17.89,10.76,3.12,2.16,6.22,4.32,9.34,6.49,9.5,3.52,18.98,7.05,28.46,10.57,1.6.72,3.2,1.42,4.81,2.14-3.36.91-6.73,1.82-10.09,2.72-3.18,2.86-2.96,5.93-.61,9.18,3.12,2.35,6.49,1.01,9.8.64,6.19-1.5,12.36-2.96,18.56-4.46,2.67-.56,5.37-1.09,8.04-1.66,4.89.53,9.75,1.09,14.6,1.63,20.16,1.66,40.96,2.3,61.01-.85,3.55-.21,7.1-.43,10.63-.64.72.24,1.39.53,2.11.69,3.07.69,6.14,1.33,9.21,2,3.74.91,7.5,1.84,11.24,2.78,4.08.99,9.26,3.36,12.79-.11,4.33-4.3.43-7-2.86-9.91-2.64-.45-5.29-.93-7.9-1.39,1.98-1.09,3.95-2.19,5.93-3.31,1.31-.24,2.64-.48,3.95-.72,4.22-1.68,8.41-3.39,12.63-5.07,3.74-1.39,7.5-2.8,11.24-4.22,1.58-1.52,3.15-3.04,4.75-4.54,6.38-3.77,12.79-7.5,19.17-11.24,16.1-10.41,30.14-23.01,41.6-38.45,8.22-11.88,16.39-23.52,22.13-36.87,5.79-13.46,8.36-27.21,11.08-41.52.29-1.98.56-3.95.85-5.93.24-3.31.51-6.59.75-9.88.46-6.32-.08-10.2-.32-17.23-.13-3.67-.27-8.95-.29-15.4ZM126.51,60.39c5.74-1.79,11.48-3.58,17.22-5.37,23.63-3.63,47.18-4.57,71.07-3.44,24.54,1.17,48.41-2.27,72.83-2.51,2.43-.67,4.86-1.33,7.32-2,9.02-2.32,17.89-3.92,26.86-6.59,4.67-1.42,9.37-2.8,14.04-4.22,4.27-1.28,10.71-2.19,14.15-5.02,5.95-2.16,12.58-5.55,18.85-6.49-4.7,11.59-12.09,21.01-21.47,29-4.43,3.76-8.89,7.5-13.32,11.27-.88.64-1.79,1.31-2.67,1.98-.88.45-1.76.91-2.62,1.33-6.86-1.31-13.72-2.62-20.56-3.95-23.71-3.63-47.55.93-68.99,11.24-6.54,4.59-13.3,8.92-19.54,13.88-4.35,3.47-8.14,7.72-11.85,11.88-2.86,3.18-3.92,3.5-6.38.43-7.69-9.56-17.25-16.85-27.69-23.09-1.2-.75-2.35-1.6-3.5-2.4-14.12-5.98-27.87-10.39-43.12-12.63h-3.55c-.13-.32-.29-.64-.45-.93,1.12-.77,2.24-1.58,3.36-2.35Zm240.72,242.77v.67c-.43.21-.88.43-1.31.67.43-.67.85-1.33,1.31-2,0-.45,0-.88.03-1.33.37.29.77.56,1.17.85-.4.37-.8.77-1.2,1.15Zm17.09-51.15c-.85,3.58-1.68,7.13-2.54,10.68-1.76,4.65-3.52,9.29-5.29,13.94-.13.51-.21,1.01-.43,1.47-2.54,5.47-5.07,10.95-7.61,16.39-.24.21-.56.37-.72.64-9.26,16.85-21.97,30.84-36.63,43.04-13.43,11.16-28.7,19.46-44.8,26.19-.24.16-.51.32-.75.45-.45.24-.88.45-1.33.67-4.91,1.58-9.8,3.31-14.79,4.73-6.7,1.9-13.48,3.58-20.24,5.37-8.28,1.07-16.53,2.14-24.8,3.23-1.44.19-2.91.35-4.38.53h-33.83c-18.08-2.08-36.36-4.54-53.72-10.28-5.79-2.22-11.72-4.14-17.38-6.67-22.67-10.23-42.69-24.16-58.92-43.23-7.85-9.26-14.82-19.17-20.56-29.93-2.67-6.19-5.37-12.36-8.04-18.56-.8-2.75-1.79-5.42-2.35-8.2-1.47-7-2.72-13.99-4.06-21.01-.29-.64-.59-1.31-.88-1.98.24-.72.51-1.44.77-2.19.67.51,1.31,1.01,1.98,1.52.61.88,1.25,1.79,1.87,2.67,7,9.85,15.67,18,25.79,24.51,5.53,3.58,11.59,6.33,17.41,9.45,26.3,13.22,55.93,9.61,82.93,1.26.67-.24,1.36-.48,2.03-.72.45-.21.91-.45,1.33-.67,11.56-4.3,21.55-11.13,30.76-19.2,1.87-1.63,3.79-3.2,5.69-4.81-.85-.64-1.74-1.28-2.59-1.92-2.19-3.28-4.41-6.57-6.59-9.88-.27-.43-.53-.88-.8-1.33-.83-.91-1.68-1.79-2.51-2.7-11.85,12.07-25.79,20.72-41.92,25.82-23.58,3.68-46.08,4.16-67.63-7.72-8.3-6.01-16.26-11.13-23.01-19.01-6.43-7.48-11.8-15.89-15.59-25.02-8.01-19.28-6.75-40.96-2.62-60.98,5.21-11.27,9.61-22.16,17.59-31.88,7.98-9.75,17.94-17.81,29-23.82,17.94-8.33,34.9-8.78,54.33-8.73,3.58.91,7.18,1.79,10.76,2.75,3.07.8,6.09,1.68,9.13,2.54,12.15,4.11,22.96,10.47,31.8,19.78,5.42,5.71,10.17,12.09,15.22,18.16,2.78,5.47,5.55,10.92,8.49,16.74,1.44-3.47,2.83-6.75,4.19-10.07,5.87-10.09,12.87-19.25,21.49-27.21,8.92-8.25,19.01-14.34,30.54-18.08.16-.05.24-.32.37-.48,5.74-1.39,11.48-2.78,17.22-4.17,3.04-.19,6.06-.59,9.1-.53,6.01.13,12.04.48,18.05.72,2.22.4,4.46.77,6.67,1.17,7.72,2.91,15.46,5.82,23.17,8.76,6.86,5.15,14.31,9.69,20.4,15.65,5.63,5.5,9.85,12.5,14.68,18.85,2.22,4.62,4.43,9.26,6.65,13.91.21.45.4.88.61,1.33,1.63,6.83,3.26,13.7,4.89,20.53,1.52,17.78-2.59,33.72-8.14,50.38-5.1,7.9-9.13,15.78-15.75,22.67-7.08,7.34-15.41,13.59-24.62,17.97-17.38,6.94-32.63,9.16-51.32,7.96-4.35-.91-8.68-1.79-13.03-2.7-5.23-2.03-10.57-3.82-15.65-6.17-9.34-4.38-16.98-11.19-24.7-17.84-1.15.67-2.3,1.33-3.44,2-2.32,2.88-4.67,5.71-6.91,8.65-.56.72-.69,1.76-1.01,2.64-.4.27-.8.51-1.2.77-.51.37-.99.75-1.47,1.12,5.63,2.03,10.2,7.9,15.38,11.19,6.27,3.95,12.74,7.66,19.09,11.51,13.96,6.97,28.75,9.32,44.24,9.5,15.78.19,29.24-3.74,44-8.84,19.17-7.85,34.39-20.48,45.76-37.78,1.31-.88,2.59-1.79,3.9-2.67-.93,5.71-1.84,11.43-2.75,17.11Zm-38.95.08c-1.12.88-2.24,1.76-3.34,2.62-.05-2.35,1.58-2.54,3.34-2.62Z"/><path class="cls-1" d="m403.6,193.03c-.77-.43-1.55-.83-2.32-1.25.64-.48,1.25-.96,1.87-1.42.16.88.32,1.79.45,2.67Z"/><path class="cls-8" d="m127.15,63.68h-3.55c-.13-.32-.29-.64-.45-.93,1.12-.77,2.24-1.58,3.36-2.35.21,1.09.43,2.19.64,3.28Z"/><path class="cls-3" d="m376.5,276.63c-.13.51-.21,1.01-.43,1.47-2.54,5.47-5.07,10.95-7.61,16.39-.24.21-.56.37-.72.64-9.26,16.85-21.97,30.84-36.63,43.04-13.43,11.16-28.7,19.46-44.8,26.19-.24.16-.51.32-.75.45-.45.24-.88.45-1.33.67-4.91,1.58-9.8,3.31-14.79,4.73-6.7,1.9-13.48,3.58-20.24,5.37-8.28,1.07-16.53,2.14-24.8,3.23-1.44.19-2.91.35-4.38.53h-33.83c-18.08-2.08-36.36-4.54-53.72-10.28-5.79-2.22-11.72-4.14-17.38-6.67-22.67-10.23-42.69-24.16-58.92-43.23,2.88-5.85,2.94-5.87,6.01-2.06,24.94,14.74,50.41,27.29,79.11,32.84,27.31,5.31,55.56,5.95,82.93.75,27.21-5.21,53.61-14.12,78.01-27.23,11.96-6.43,23.84-13.14,35.24-20.5,11.83-7.66,22.59-17.06,33.75-25.66,1.76-.21,3.52-.45,5.29-.67Z"/><path class="cls-10" d="m368.86,24.75c-4.7,11.59-12.09,21.01-21.47,29-4.43,3.76-8.89,7.5-13.32,11.27-.88.64-1.79,1.31-2.67,1.98-.88.45-1.76.91-2.62,1.33-6.86-1.31-13.72-2.62-20.56-3.95-23.71-3.63-47.55.93-68.99,11.24-6.54,4.59-13.3,8.92-19.54,13.88-4.35,3.47-8.14,7.72-11.85,11.88-2.86,3.18-3.92,3.5-6.38.43-7.69-9.56-17.25-16.85-27.69-23.09-1.2-.75-2.35-1.6-3.5-2.4-14.12-5.98-27.87-10.39-43.12-12.63-.21-1.09-.43-2.19-.64-3.28,5.74-1.79,11.48-3.58,17.22-5.37,23.63-3.63,47.18-4.57,71.07-3.44,24.54,1.17,48.41-2.27,72.83-2.51,2.43-.67,4.86-1.33,7.32-2,9.02-2.32,17.89-3.92,26.86-6.59,4.67-1.42,9.37-2.8,14.04-4.22,4.27-1.28,10.71-2.19,14.15-5.02,5.95-2.16,12.58-5.55,18.85-6.49Z"/><path class="cls-2" d="m381.94,164.52c-1.63-6.84-3.26-13.7-4.89-20.53-.21-.45-.4-.88-.61-1.33-2.22-4.65-4.43-9.29-6.65-13.91-4.83-6.35-9.05-13.35-14.68-18.85-6.09-5.95-13.54-10.49-20.4-15.65-7.72-2.94-15.46-5.85-23.17-8.76-2.22-.4-4.46-.77-6.67-1.17-6.01-.24-12.04-.59-18.05-.72-3.04-.05-6.06.35-9.1.53-5.74,1.39-11.48,2.78-17.22,4.17-.13.16-.21.43-.37.48-11.53,3.74-21.63,9.83-30.54,18.08-8.62,7.96-15.62,17.11-21.49,27.21-1.36,3.31-2.75,6.59-4.19,10.07-2.94-5.82-5.71-11.27-8.49-16.74-5.05-6.06-9.8-12.44-15.22-18.16-8.84-9.32-19.65-15.67-31.8-19.78-3.04-.85-6.06-1.74-9.13-2.54-3.58-.96-7.18-1.84-10.76-2.75-19.44-.05-36.39.4-54.33,8.73-11.05,6.01-21.01,14.07-29,23.82-7.98,9.72-12.39,20.61-17.59,31.88-4.14,20.02-5.39,41.7,2.62,60.98,3.79,9.13,9.16,17.54,15.59,25.02,6.75,7.88,14.71,13,23.01,19.01,21.55,11.88,44.05,11.4,67.63,7.72,16.13-5.1,30.06-13.75,41.92-25.82-2.38-4.83-7.02-11.08-7.29-16.61-.27-5.18,4.19-9.64,7.77-12.82,7.74-6.91,17.7-9.61,27.95-8.65,9.77.93,19.86,6.03,25.66,14.18,6.65,9.29-3.66,16.02-3.68,25.2,7.72,6.65,15.35,13.46,24.7,17.84,5.07,2.35,10.41,4.14,15.65,6.17,4.35.91,8.68,1.79,13.03,2.7,18.69,1.2,33.93-1.01,51.32-7.96,9.21-4.38,17.54-10.63,24.62-17.97,6.62-6.89,10.65-14.76,15.75-22.67,5.55-16.66,9.67-32.6,8.14-50.38Zm-199.71,21.31c-.93,3.07-1.87,6.14-2.8,9.21-6.03,13.91-19.28,22.19-34.17,23.55-14.2,1.33-31.83-7.02-37.43-20.85-1.33-3.1-2.64-6.19-3.98-9.29-.59-3.12-1.17-6.22-1.79-9.32.24-2.43.45-4.89.67-7.32,1.52-4.41,2.99-8.81,4.54-13.19.21-.56.77-.96,1.17-1.44,4.97-8.54,12.23-14.18,21.57-17.19.59-.21,1.2-.4,1.79-.59,6.35-2,12.79-1.79,19.25-.67,1.33.4,2.7.8,4.03,1.23.43.03.85.08,1.25.13,10.79,3.9,18.66,11.03,23.6,21.33.53,1.15.67,2.48,1.01,3.74,1.84,6.78,4.17,13.56,1.28,20.66Zm122.01-2.03c-.83,3.1-1.68,6.19-2.51,9.29-6.3,14.66-17.33,22.61-33.13,25.36-14.76,2.59-34.07-8.33-40.02-22.08-4.78-8.33-5.66-17.25-3.82-26.54,1.74-4.22,3.44-8.41,5.18-12.6,4.73-8.28,11.85-13.64,20.56-17.14,6.09-1.9,12.23-3.04,18.61-1.52,5.02.03,9.72,1.2,13.96,4.03,11.99,6.25,19.44,15.81,21.09,29.4.45,3.87.08,7.85.08,11.8Z"/><path class="cls-3" d="m383.17,237.57c-11.37,17.3-26.59,29.93-45.76,37.78-14.76,5.1-28.22,9.02-44,8.84-15.49-.19-30.28-2.54-44.24-9.5-6.35-3.84-12.82-7.56-19.09-11.51-5.18-3.28-9.75-9.16-15.38-11.19-3.36,2.88-6.97,7.45-11.8,7.4-4.91-.08-8.81-5.02-12.07-8.06-1.9,1.6-3.82,3.18-5.69,4.81-9.21,8.06-19.2,14.9-30.76,19.2-.43.21-.88.45-1.33.67-.67.24-1.36.48-2.03.72-26.99,8.36-56.63,11.96-82.93-1.26-5.82-3.12-11.88-5.87-17.41-9.45-10.12-6.51-18.8-14.66-25.79-24.51-.61-.88-1.25-1.79-1.87-2.67-.67-.51-1.31-1.01-1.98-1.52-.27.75-.53,1.47-.77,2.19.29.67.59,1.33.88,1.98,1.33,7.02,2.59,14.02,4.06,21.01.56,2.78,1.55,5.45,2.35,8.2,2.67,6.19,5.37,12.36,8.04,18.56,5.74,10.76,12.71,20.66,20.56,29.93,2.88-5.85,2.94-5.87,6.01-2.06,24.94,14.74,50.41,27.29,79.11,32.84,27.31,5.31,55.56,5.95,82.93.75,27.21-5.21,53.61-14.12,78.01-27.23,11.96-6.43,23.84-13.14,35.24-20.5,11.83-7.66,22.59-17.06,33.75-25.66,1.76-.21,3.52-.45,5.29-.67,1.76-4.65,3.52-9.29,5.29-13.94.85-3.55,1.68-7.1,2.54-10.68.91-5.69,1.82-11.4,2.75-17.11-1.31.88-2.59,1.79-3.9,2.67Zm-219.76,74.92c-1.71,3.28-7.13,5.13-10.49,5.23-2.14.05-4.06-.32-5.95-1.31-1.76-.91-2.56-3.12-4.54-3.1-1.47.05-3.71,2.67-5.13,3.28-1.95.88-3.98,1.33-6.11,1.12-5.26-.51-8.22-4.19-9.53-8.94.32-.24.64-.48.93-.72,3.39,2.43,7.05,6.49,11.59,5.69,5.07-.85,5.77-7.48,10.28-5.39,4.54,2.11,6.46,8.17,12.55,4.38,1.39-.85,3.28-4.62,5.29-4.35,2.88.37,1.87,2.64,1.12,4.11Zm109.97,4.43c-3.6-1.12-5.5-3.55-9.32-2.24-3.26,1.09-5.26,3.39-9.05,3.18-3.39-.16-4.73-2.78-7.61-3.5-3.55-.91-6.09,2.35-9.34,3.1-7.16,1.6-12.66-2.94-13.64-9.64,6.3,3.2,10.31,8.81,17.06,3.31,1.84-1.49,2.99-4.19,5.39-3.31,2.99,1.09,3.63,4.94,7.42,5.77,3.26.69,5.87-.72,8.3-2.75,4.17-3.5,3.26-3.63,7.66-.03,7,5.74,10.81.61,17.33-2.94.03,7.58-7.69,11.11-14.2,9.05Z"/><circle class="cls-11" cx="142.83" cy="178.35" r="40.42"/><circle class="cls-11" cx="264.13" cy="178.35" r="40.42"/><path class="cls-6" d="m368.43,302.02c-.4.37-.8.77-1.2,1.15v-.67c0-.45,0-.88.03-1.33.37.29.77.56,1.17.85Z"/><path class="cls-9" d="m367.23,302.5v1.33c-.43.21-.88.43-1.31.67.43-.67.85-1.33,1.31-2Z"/><path class="cls-5" d="m232.43,211.59c-5.79-8.14-15.89-13.24-25.66-14.18-10.25-.96-20.21,1.74-27.95,8.65-3.58,3.18-8.04,7.64-7.77,12.82.27,5.53,4.91,11.77,7.29,16.61.83.91,1.68,1.79,2.51,2.7.27.45.53.91.8,1.33,2.19,3.31,4.41,6.59,6.59,9.88.85.64,1.74,1.28,2.59,1.92,3.26,3.04,7.16,7.98,12.07,8.06,4.83.05,8.44-4.51,11.8-7.4.48-.37.96-.75,1.47-1.12.4-.27.8-.51,1.2-.77.32-.88.45-1.92,1.01-2.64,2.24-2.94,4.59-5.77,6.91-8.65,1.15-.67,2.3-1.33,3.44-2,.03-9.18,10.33-15.91,3.68-25.2Zm-17.01,23.66c-2.14,3.28-7.45,14.18-12.04,14.18-3.84,0-9.24-9.16-11.32-12.01-3.44-4.7-7.53-9.93-9.85-15.33-4.25-9.91,13.11-16.42,20.85-15.75,6.27-.48,22.4,4.3,21.92,12.87-.27,4.86-6.91,11.93-9.56,16.05Z"/><path class="cls-5" d="m287.59,307.87c.03,7.58-7.69,11.11-14.2,9.05-3.6-1.12-5.5-3.55-9.32-2.24-3.26,1.09-5.26,3.39-9.05,3.18-3.39-.16-4.73-2.78-7.61-3.5-3.55-.91-6.09,2.35-9.34,3.1-7.16,1.6-12.66-2.94-13.64-9.64,6.3,3.2,10.31,8.81,17.06,3.31,1.84-1.49,2.99-4.19,5.39-3.31,2.99,1.09,3.63,4.94,7.42,5.77,3.26.69,5.87-.72,8.3-2.75,4.17-3.5,3.26-3.63,7.66-.03,7,5.74,10.81.61,17.33-2.94Z"/><path class="cls-5" d="m163.41,312.48c-1.71,3.28-7.13,5.13-10.49,5.23-2.14.05-4.06-.32-5.95-1.31-1.76-.91-2.56-3.12-4.54-3.1-1.47.05-3.71,2.67-5.13,3.28-1.95.88-3.98,1.33-6.11,1.12-5.26-.51-8.22-4.19-9.53-8.94.32-.24.64-.48.93-.72,3.39,2.43,7.05,6.49,11.59,5.69,5.07-.85,5.77-7.48,10.28-5.39,4.54,2.11,6.46,8.17,12.55,4.38,1.39-.85,3.28-4.62,5.29-4.35,2.88.37,1.87,2.64,1.12,4.11Z"/><path class="cls-6" d="m345.37,252.09c-1.12.88-2.24,1.76-3.34,2.62-.05-2.35,1.58-2.54,3.34-2.62Z"/><path class="cls-7" d="m203.06,206.33c6.29-.48,22.41,4.29,21.92,12.86-.28,4.85-6.93,11.93-9.57,16.04-2.13,3.31-7.43,14.18-12.03,14.18-3.84,0-9.23-9.16-11.32-12-3.46-4.7-7.52-9.95-9.84-15.33-4.26-9.9,13.1-16.4,20.84-15.75Z"/><path class="cls-4" d="m239.82,163.18c0,.45-.03.88-.03,1.33-.32-.21-.64-.45-.96-.67.32-.21.64-.45.99-.67Z"/><circle class="cls-2" cx="256" cy="163.18" r="12.72"/><circle class="cls-2" cx="148.09" cy="163.18" r="12.72"/><path class="cls-11" d="m822.7,335.32c-16,19.47-35.4,34.94-58.2,46.4-22.8,11.46-47.94,17.2-75.4,17.2-23.74,0-46-4.34-66.8-13s-38.9-20.46-54.29-35.4c-15.39-14.93-27.52-32.46-36.4-52.6-8.88-20.13-13.31-41.8-13.31-65s4.44-44.86,13.31-65c8.88-20.13,21.01-37.73,36.4-52.8,15.39-15.06,33.49-26.86,54.29-35.4,20.8-8.53,43.06-12.8,66.8-12.8,27.46,0,52.6,5.74,75.4,17.2,22.8,11.47,41.8,26.4,57,44.8l-42.8,44c-9.87-14.13-22.6-25.53-38.2-34.2-15.6-8.66-32.74-13-51.4-13-14.94,0-29,2.87-42.2,8.6-13.2,5.74-24.74,13.47-34.6,23.2-9.87,9.74-17.67,21.07-23.4,34-5.74,12.94-8.6,26.74-8.6,41.4s2.86,28.07,8.6,41c5.73,12.94,13.53,24.27,23.4,34,9.86,9.74,21.4,17.47,34.6,23.2,13.2,5.74,27.26,8.6,42.2,8.6,19.73,0,37.2-4.46,52.4-13.4,15.2-8.93,27.86-20.73,38-35.4l43.2,44.4Z"/><path class="cls-11" d="m1056.3,392.92h-57.6v-138.4c0-8.26-1.27-15.53-3.82-21.8-2.54-6.26-5.89-11.46-10.04-15.6-4.15-4.13-8.97-7.2-14.46-9.2s-11.18-3-17.07-3c-8.84,0-17.27,1.34-25.31,4-8.04,2.67-15.8,6.4-23.3,11.2v172.8h-57.6V61.32h57.6l.4,113.6c8.53-6.66,18.4-11.6,29.6-14.8,11.2-3.2,22-4.8,32.4-4.8,12,0,23.33,1.94,34,5.8,10.66,3.87,20.13,9.74,28.4,17.6,8.26,7.87,14.8,17.74,19.6,29.6,4.8,11.87,7.2,25.94,7.2,42.2v142.4Z"/><path class="cls-11" d="m1287.89,392.92h-57.6v-12.4c-10.14,6.94-20.87,11.74-32.2,14.4-11.34,2.66-23,4-35,4-11.2,0-21.34-1.67-30.4-5-9.07-3.33-16.94-8.13-23.6-14.4-6.67-6.26-11.8-13.66-15.4-22.2-3.6-8.53-5.4-18-5.4-28.4,0-13.06,2.86-24.46,8.6-34.2,5.73-9.73,13.53-17.86,23.4-24.4,9.86-6.53,21.4-11.4,34.6-14.6,13.2-3.2,27.4-4.8,42.6-4.8h33.2c0-13.6-4.4-24.4-13.2-32.4s-21.47-12-38-12c-8,0-16.27,1.47-24.8,4.4-8.54,2.94-17.07,8.27-25.6,16l-34-34.4c12.26-11.73,26.46-20.8,42.6-27.2,16.13-6.4,32.73-9.6,49.8-9.6,16,0,30.24,2.54,42.74,7.6,12.49,5.07,22.58,11.6,30.26,19.6,10.06,10.14,17.14,21.47,21.25,34,4.1,12.54,6.16,28.54,6.16,48v128Zm-57.6-57.6v-42.8h-26.4c-8,0-15.54.54-22.6,1.6-7.07,1.07-13.2,2.87-18.4,5.4-5.2,2.54-9.34,5.8-12.4,9.8-3.07,4-4.6,8.8-4.6,14.4,0,8,3.13,14.54,9.4,19.6,6.26,5.07,14.33,7.6,24.2,7.6,8.53,0,17-1.33,25.4-4,8.4-2.66,16.86-6.53,25.4-11.6Z"/><path class="cls-11" d="m1461.09,387.72c-5.87,3.74-12.67,6.53-20.4,8.4-7.74,1.86-15.47,2.8-23.2,2.8-13.6,0-25.07-1.67-34.4-5-9.34-3.33-16.8-8.46-22.4-15.4-5.6-6.93-9.67-15.73-12.2-26.4-2.54-10.66-3.8-23.2-3.8-37.6v-101.2h-30.4v-26c18.66-7.73,33.8-19.2,45.4-34.4,11.6-15.2,19.53-34.93,23.8-59.2h18.8v67.6h58.4v52h-58.4v105.2c0,5.87.73,10.67,2.2,14.4,1.46,3.74,3.4,6.67,5.8,8.8,2.4,2.14,5.13,3.6,8.2,4.4,3.06.8,6.33,1.2,9.8,1.2,4.53,0,10-.8,16.4-2.4,6.4-1.6,11.86-4.26,16.4-8v50.8Z"/><path class="cls-11" d="m1824.69,161.32l-77.6,232h-50l-46-138-46,138h-50l-78-232h60.8l43.6,144.8,43.6-144.8h51.2l44,144.8,43.6-144.8h60.8Z"/><path class="cls-11" d="m2089.49,277.32c0,17.34-3.2,33.4-9.6,48.2-6.4,14.8-15.2,27.6-26.4,38.4s-24.34,19.34-39.4,25.6c-15.07,6.26-31.14,9.4-48.2,9.4s-33.07-3.14-48-9.4c-14.94-6.26-28-14.86-39.2-25.8-11.2-10.93-20-23.8-26.4-38.6-6.4-14.8-9.6-30.73-9.6-47.8s3.26-32.6,9.8-47.4c6.53-14.8,15.4-27.73,26.6-38.8,11.2-11.06,24.26-19.73,39.2-26,14.93-6.26,30.8-9.4,47.6-9.4s33.13,3.14,48.2,9.4c15.06,6.27,28.2,14.8,39.4,25.6s20,23.67,26.4,38.6c6.4,14.94,9.6,30.94,9.6,48Zm-57.6,0c0-9.86-1.73-19.06-5.19-27.6-3.46-8.53-8.17-16-14.16-22.4-5.98-6.4-12.96-11.4-20.94-15-7.98-3.6-16.48-5.4-25.52-5.4s-17.55,1.8-25.53,5.4c-7.97,3.6-14.96,8.6-20.94,15-5.98,6.4-10.7,13.87-14.16,22.4-3.46,8.54-5.18,17.74-5.18,27.6s1.73,19.07,5.18,27.6c3.46,8.54,8.17,16,14.16,22.4,5.98,6.4,12.96,11.4,20.94,15,7.97,3.6,16.49,5.4,25.53,5.4s17.54-1.8,25.52-5.4c7.97-3.6,14.96-8.6,20.94-15,5.98-6.4,10.7-13.86,14.16-22.4,3.46-8.53,5.19-17.73,5.19-27.6Z"/><path class="cls-11" d="m2291.48,185.72l-30.8,48.8c-5.6-6.13-11.8-11.53-18.6-16.2-6.8-4.66-13.67-7-20.6-7-3.74,0-7.8.87-12.2,2.6-4.4,1.74-8.54,4.6-12.4,8.6-3.87,4-7.14,9.27-9.8,15.8-2.67,6.54-4,14.6-4,24.2v130.4h-57.6v-231.2h57.6v24.8c6.93-9.86,14.6-17.46,23-22.8,8.4-5.33,17.8-8,28.2-8s20.06,2.74,29.8,8.2c9.73,5.47,18.86,12.74,27.4,21.8Z"/><path class="cls-11" d="m2440.68,387.72c-5.87,3.74-12.67,6.53-20.4,8.4-7.74,1.86-15.47,2.8-23.2,2.8-13.6,0-25.07-1.67-34.4-5-9.34-3.33-16.8-8.46-22.4-15.4-5.6-6.93-9.67-15.73-12.2-26.4-2.54-10.66-3.8-23.2-3.8-37.6v-101.2h-30.4v-26c18.66-7.73,33.8-19.2,45.4-34.4,11.6-15.2,19.53-34.93,23.8-59.2h18.8v67.6h58.4v52h-58.4v105.2c0,5.87.73,10.67,2.2,14.4,1.46,3.74,3.4,6.67,5.8,8.8,2.4,2.14,5.13,3.6,8.2,4.4,3.06.8,6.33,1.2,9.8,1.2,4.53,0,10-.8,16.4-2.4,6.4-1.6,11.86-4.26,16.4-8v50.8Z"/><path class="cls-11" d="m2683.88,392.92h-57.6v-138.4c0-8.26-1.27-15.53-3.82-21.8-2.54-6.26-5.89-11.46-10.04-15.6-4.15-4.13-8.97-7.2-14.46-9.2-5.49-2-11.18-3-17.07-3-8.84,0-17.27,1.34-25.31,4-8.04,2.67-15.8,6.4-23.3,11.2v172.8h-57.6V61.32h57.6l.4,113.6c8.53-6.66,18.4-11.6,29.6-14.8,11.2-3.2,22-4.8,32.4-4.8,12,0,23.33,1.94,34,5.8,10.66,3.87,20.13,9.74,28.4,17.6,8.26,7.87,14.8,17.74,19.6,29.6,4.8,11.87,7.2,25.94,7.2,42.2v142.4Z"/></svg>